<mxfile host="app.diagrams.net" modified="2021-10-30T17:22:31.907Z" agent="5.0 (Windows NT 10.0; Win64; x64) AppleWebKit/537.36 (KHTML, like Gecko) Chrome/95.0.4638.54 Safari/537.36 Edg/95.0.1020.38" etag="p14iVpvg2js1hfai4-9p" version="15.6.2" type="github">
  <diagram id="FfT6NV1a5uEnnNNgh3aj" name="Page-1">
    <mxGraphModel dx="1422" dy="794" grid="0" gridSize="10" guides="1" tooltips="1" connect="1" arrows="1" fold="1" page="1" pageScale="1" pageWidth="827" pageHeight="1169" math="0" shadow="0">
      <root>
        <mxCell id="0" />
        <mxCell id="1" parent="0" />
        <mxCell id="RBWV5vjC1XgZZIpLS1tP-13" value="" style="edgeStyle=none;rounded=0;orthogonalLoop=1;jettySize=auto;html=1;entryX=0;entryY=0.5;entryDx=0;entryDy=0;endArrow=none;endFill=0;" parent="1" target="RBWV5vjC1XgZZIpLS1tP-15" edge="1">
          <mxGeometry relative="1" as="geometry">
            <mxPoint x="200" y="427" as="sourcePoint" />
            <mxPoint x="322.9999999999999" y="400.5" as="targetPoint" />
          </mxGeometry>
        </mxCell>
        <mxCell id="RBWV5vjC1XgZZIpLS1tP-5" value="경상대&lt;br&gt;학생&lt;br&gt;" style="shape=umlActor;verticalLabelPosition=bottom;verticalAlign=top;html=1;outlineConnect=0;" parent="1" vertex="1">
          <mxGeometry x="160" y="387.5" width="30" height="50" as="geometry" />
        </mxCell>
        <mxCell id="RBWV5vjC1XgZZIpLS1tP-42" value="" style="edgeStyle=none;rounded=1;sketch=0;orthogonalLoop=1;jettySize=auto;html=1;endArrow=none;endFill=0;strokeColor=default;entryX=0;entryY=0.5;entryDx=0;entryDy=0;" parent="1" target="RBWV5vjC1XgZZIpLS1tP-41" edge="1">
          <mxGeometry relative="1" as="geometry">
            <mxPoint x="199" y="427" as="sourcePoint" />
          </mxGeometry>
        </mxCell>
        <mxCell id="RBWV5vjC1XgZZIpLS1tP-6" value="공지사항&lt;br style=&quot;font-size: 10px;&quot;&gt;접속" style="ellipse;whiteSpace=wrap;html=1;verticalAlign=top;fontSize=10;" parent="1" vertex="1">
          <mxGeometry x="275" y="369" width="100" height="40" as="geometry" />
        </mxCell>
        <mxCell id="RBWV5vjC1XgZZIpLS1tP-45" value="" style="edgeStyle=none;rounded=1;sketch=0;orthogonalLoop=1;jettySize=auto;html=1;dashed=1;endArrow=classic;endFill=1;strokeColor=default;" parent="1" source="RBWV5vjC1XgZZIpLS1tP-15" target="RBWV5vjC1XgZZIpLS1tP-17" edge="1">
          <mxGeometry relative="1" as="geometry" />
        </mxCell>
        <mxCell id="RBWV5vjC1XgZZIpLS1tP-15" value="푸시알림 받음" style="ellipse;whiteSpace=wrap;html=1;rounded=0;sketch=0;fontSize=10;" parent="1" vertex="1">
          <mxGeometry x="275" y="430.5" width="100" height="37.5" as="geometry" />
        </mxCell>
        <mxCell id="RBWV5vjC1XgZZIpLS1tP-17" value="최신 공지사항 url 제공" style="ellipse;whiteSpace=wrap;html=1;rounded=0;sketch=0;fontSize=10;" parent="1" vertex="1">
          <mxGeometry x="264" y="491" width="122" height="40" as="geometry" />
        </mxCell>
        <mxCell id="RBWV5vjC1XgZZIpLS1tP-23" value="경상대 알림 앱" style="text;html=1;align=center;verticalAlign=middle;resizable=0;points=[];autosize=1;strokeColor=none;fillColor=none;" parent="1" vertex="1">
          <mxGeometry x="291" y="267" width="90" height="20" as="geometry" />
        </mxCell>
        <mxCell id="RBWV5vjC1XgZZIpLS1tP-26" value="" style="html=1;rounded=1;sketch=0;endArrow=none;endFill=0;strokeColor=default;entryX=0;entryY=0.5;entryDx=0;entryDy=0;" parent="1" target="RBWV5vjC1XgZZIpLS1tP-6" edge="1">
          <mxGeometry width="100" relative="1" as="geometry">
            <mxPoint x="200" y="426" as="sourcePoint" />
            <mxPoint x="300" y="360" as="targetPoint" />
          </mxGeometry>
        </mxCell>
        <mxCell id="RBWV5vjC1XgZZIpLS1tP-41" value="수신동의" style="ellipse;whiteSpace=wrap;html=1;verticalAlign=top;fontSize=10;" parent="1" vertex="1">
          <mxGeometry x="290" y="313" width="70" height="30" as="geometry" />
        </mxCell>
        <mxCell id="9URHoFSCIMQTrFVZBlEy-10" value="" style="rounded=0;orthogonalLoop=1;jettySize=auto;html=1;endArrow=none;endFill=0;entryX=0;entryY=0.5;entryDx=0;entryDy=0;" parent="1" target="9URHoFSCIMQTrFVZBlEy-9" edge="1">
          <mxGeometry relative="1" as="geometry">
            <mxPoint x="198" y="599" as="sourcePoint" />
            <mxPoint x="294" y="627" as="targetPoint" />
          </mxGeometry>
        </mxCell>
        <mxCell id="JxVbLhGAbtT8IcMEekcU-1" value="기숙사&lt;br&gt;홈페이지" style="shape=umlActor;verticalLabelPosition=bottom;verticalAlign=top;html=1;outlineConnect=0;fontSize=10;fillColor=none;" parent="1" vertex="1">
          <mxGeometry x="160" y="584" width="30" height="46" as="geometry" />
        </mxCell>
        <mxCell id="JxVbLhGAbtT8IcMEekcU-2" value="학과&lt;br&gt;홈페이지" style="shape=umlActor;verticalLabelPosition=bottom;verticalAlign=top;html=1;outlineConnect=0;fontSize=10;fillColor=none;" parent="1" vertex="1">
          <mxGeometry x="162" y="698" width="30" height="37" as="geometry" />
        </mxCell>
        <mxCell id="9URHoFSCIMQTrFVZBlEy-1" value="서버" style="rounded=0;whiteSpace=wrap;html=1;fillColor=none;strokeColor=none;" parent="1" vertex="1">
          <mxGeometry x="268" y="540" width="120" height="60" as="geometry" />
        </mxCell>
        <mxCell id="9URHoFSCIMQTrFVZBlEy-9" value="&lt;font style=&quot;font-size: 12px&quot;&gt;최신 url 제공&lt;/font&gt;" style="ellipse;whiteSpace=wrap;html=1;fontSize=10;verticalAlign=middle;fillColor=none;" parent="1" vertex="1">
          <mxGeometry x="284" y="653" width="102" height="36" as="geometry" />
        </mxCell>
        <mxCell id="9URHoFSCIMQTrFVZBlEy-16" value="" style="endArrow=none;html=1;rounded=0;entryX=0;entryY=0.5;entryDx=0;entryDy=0;endFill=0;" parent="1" target="9URHoFSCIMQTrFVZBlEy-9" edge="1">
          <mxGeometry width="50" height="50" relative="1" as="geometry">
            <mxPoint x="207" y="711" as="sourcePoint" />
            <mxPoint x="293" y="649" as="targetPoint" />
          </mxGeometry>
        </mxCell>
        <mxCell id="XEwc188llmyixpWjzOlk-4" value="url 요청" style="ellipse;whiteSpace=wrap;html=1;" parent="1" vertex="1">
          <mxGeometry x="284" y="600" width="102" height="40" as="geometry" />
        </mxCell>
        <mxCell id="deTWXgsLbPqFqW-D7X80-12" value="&amp;lt;&amp;lt;include&amp;gt;&amp;gt;" style="text;html=1;align=center;verticalAlign=middle;resizable=0;points=[];autosize=1;strokeColor=none;fillColor=none;" vertex="1" parent="1">
          <mxGeometry x="291" y="468" width="80" height="20" as="geometry" />
        </mxCell>
        <mxCell id="deTWXgsLbPqFqW-D7X80-13" value="" style="rounded=0;whiteSpace=wrap;html=1;fillColor=none;" vertex="1" parent="1">
          <mxGeometry x="232" y="550" width="192" height="203" as="geometry" />
        </mxCell>
        <mxCell id="deTWXgsLbPqFqW-D7X80-23" value="" style="rounded=0;whiteSpace=wrap;html=1;fillColor=none;" vertex="1" parent="1">
          <mxGeometry x="227" y="238" width="204" height="306" as="geometry" />
        </mxCell>
      </root>
    </mxGraphModel>
  </diagram>
</mxfile>
